<mxfile host="app.diagrams.net" modified="2022-03-24T16:54:39.794Z" agent="5.0 (Windows NT 10.0; Win64; x64) AppleWebKit/537.36 (KHTML, like Gecko) Chrome/99.0.4844.74 Safari/537.36 Edg/99.0.1150.46" etag="GwVA86Uq8RfKyiLrA4oT" version="17.2.1" type="github">
  <diagram id="R2lEEEUBdFMjLlhIrx00" name="Page-1">
    <mxGraphModel dx="3910" dy="3330" grid="1" gridSize="10" guides="1" tooltips="1" connect="1" arrows="1" fold="1" page="1" pageScale="1" pageWidth="850" pageHeight="1100" math="0" shadow="0" extFonts="Permanent Marker^https://fonts.googleapis.com/css?family=Permanent+Marker">
      <root>
        <mxCell id="0" />
        <mxCell id="1" parent="0" />
        <mxCell id="M1MRfgd6Vt9MZMbqWc0O-1" value="konsumen" style="rounded=0;whiteSpace=wrap;html=1;" vertex="1" parent="1">
          <mxGeometry x="570" y="190" width="220" height="120" as="geometry" />
        </mxCell>
        <mxCell id="M1MRfgd6Vt9MZMbqWc0O-4" value="alamat_konsumen" style="ellipse;whiteSpace=wrap;html=1;" vertex="1" parent="1">
          <mxGeometry x="540" y="470" width="120" height="80" as="geometry" />
        </mxCell>
        <mxCell id="M1MRfgd6Vt9MZMbqWc0O-5" value="nama_konsumen" style="ellipse;whiteSpace=wrap;html=1;" vertex="1" parent="1">
          <mxGeometry x="890" y="410" width="120" height="80" as="geometry" />
        </mxCell>
        <mxCell id="M1MRfgd6Vt9MZMbqWc0O-6" value="no_hp_konsumen" style="ellipse;whiteSpace=wrap;html=1;" vertex="1" parent="1">
          <mxGeometry x="715" y="460" width="120" height="80" as="geometry" />
        </mxCell>
        <mxCell id="M1MRfgd6Vt9MZMbqWc0O-7" value="id_konsumen" style="ellipse;whiteSpace=wrap;html=1;fontStyle=4" vertex="1" parent="1">
          <mxGeometry x="400" y="400" width="120" height="80" as="geometry" />
        </mxCell>
        <mxCell id="M1MRfgd6Vt9MZMbqWc0O-8" value="barang" style="rounded=0;whiteSpace=wrap;html=1;" vertex="1" parent="1">
          <mxGeometry x="570" y="-240" width="220" height="120" as="geometry" />
        </mxCell>
        <mxCell id="M1MRfgd6Vt9MZMbqWc0O-9" value="supplier" style="rounded=0;whiteSpace=wrap;html=1;" vertex="1" parent="1">
          <mxGeometry x="1160" y="-205" width="160" height="70" as="geometry" />
        </mxCell>
        <mxCell id="M1MRfgd6Vt9MZMbqWc0O-10" value="nama_supplier" style="ellipse;whiteSpace=wrap;html=1;" vertex="1" parent="1">
          <mxGeometry x="1400" y="-300" width="120" height="80" as="geometry" />
        </mxCell>
        <mxCell id="M1MRfgd6Vt9MZMbqWc0O-11" value="no_hp_suppler" style="ellipse;whiteSpace=wrap;html=1;" vertex="1" parent="1">
          <mxGeometry x="1340" y="-390" width="120" height="80" as="geometry" />
        </mxCell>
        <mxCell id="M1MRfgd6Vt9MZMbqWc0O-13" value="alamat_supplier" style="ellipse;whiteSpace=wrap;html=1;" vertex="1" parent="1">
          <mxGeometry x="1370" y="-120" width="120" height="80" as="geometry" />
        </mxCell>
        <mxCell id="M1MRfgd6Vt9MZMbqWc0O-14" value="id_supplier" style="ellipse;whiteSpace=wrap;html=1;fontStyle=4" vertex="1" parent="1">
          <mxGeometry x="1380" y="-215" width="120" height="80" as="geometry" />
        </mxCell>
        <mxCell id="M1MRfgd6Vt9MZMbqWc0O-15" value="kode_barang" style="ellipse;whiteSpace=wrap;html=1;fontStyle=4" vertex="1" parent="1">
          <mxGeometry x="420" y="-340" width="120" height="80" as="geometry" />
        </mxCell>
        <mxCell id="M1MRfgd6Vt9MZMbqWc0O-16" value="nama_barang" style="ellipse;whiteSpace=wrap;html=1;" vertex="1" parent="1">
          <mxGeometry x="450" y="-480" width="120" height="80" as="geometry" />
        </mxCell>
        <mxCell id="M1MRfgd6Vt9MZMbqWc0O-17" value="harga_beli" style="ellipse;whiteSpace=wrap;html=1;" vertex="1" parent="1">
          <mxGeometry x="540" y="-580" width="120" height="80" as="geometry" />
        </mxCell>
        <mxCell id="M1MRfgd6Vt9MZMbqWc0O-18" value="stok" style="ellipse;whiteSpace=wrap;html=1;" vertex="1" parent="1">
          <mxGeometry x="700" y="-560" width="120" height="80" as="geometry" />
        </mxCell>
        <mxCell id="M1MRfgd6Vt9MZMbqWc0O-19" value="harga_jual" style="ellipse;whiteSpace=wrap;html=1;" vertex="1" parent="1">
          <mxGeometry x="800" y="-420" width="120" height="80" as="geometry" />
        </mxCell>
        <mxCell id="M1MRfgd6Vt9MZMbqWc0O-20" value="jual" style="rhombus;whiteSpace=wrap;html=1;" vertex="1" parent="1">
          <mxGeometry x="620" y="-40" width="120" height="120" as="geometry" />
        </mxCell>
        <mxCell id="M1MRfgd6Vt9MZMbqWc0O-27" value="" style="endArrow=none;html=1;rounded=0;exitX=1;exitY=0;exitDx=0;exitDy=0;entryX=0.5;entryY=1;entryDx=0;entryDy=0;" edge="1" parent="1" source="M1MRfgd6Vt9MZMbqWc0O-7" target="M1MRfgd6Vt9MZMbqWc0O-1">
          <mxGeometry width="50" height="50" relative="1" as="geometry">
            <mxPoint x="670" y="360" as="sourcePoint" />
            <mxPoint x="680" y="330" as="targetPoint" />
          </mxGeometry>
        </mxCell>
        <mxCell id="M1MRfgd6Vt9MZMbqWc0O-28" value="" style="endArrow=none;html=1;rounded=0;exitX=0.5;exitY=0;exitDx=0;exitDy=0;entryX=0.5;entryY=1;entryDx=0;entryDy=0;" edge="1" parent="1" source="M1MRfgd6Vt9MZMbqWc0O-4" target="M1MRfgd6Vt9MZMbqWc0O-1">
          <mxGeometry width="50" height="50" relative="1" as="geometry">
            <mxPoint x="470" y="260" as="sourcePoint" />
            <mxPoint x="520" y="210" as="targetPoint" />
          </mxGeometry>
        </mxCell>
        <mxCell id="M1MRfgd6Vt9MZMbqWc0O-29" value="" style="endArrow=none;html=1;rounded=0;exitX=0.5;exitY=0;exitDx=0;exitDy=0;entryX=0.5;entryY=1;entryDx=0;entryDy=0;" edge="1" parent="1" source="M1MRfgd6Vt9MZMbqWc0O-6" target="M1MRfgd6Vt9MZMbqWc0O-1">
          <mxGeometry width="50" height="50" relative="1" as="geometry">
            <mxPoint x="670" y="360" as="sourcePoint" />
            <mxPoint x="720" y="310" as="targetPoint" />
          </mxGeometry>
        </mxCell>
        <mxCell id="M1MRfgd6Vt9MZMbqWc0O-30" value="" style="endArrow=none;html=1;rounded=0;exitX=0.5;exitY=0;exitDx=0;exitDy=0;entryX=0.5;entryY=1;entryDx=0;entryDy=0;" edge="1" parent="1" source="M1MRfgd6Vt9MZMbqWc0O-5" target="M1MRfgd6Vt9MZMbqWc0O-1">
          <mxGeometry width="50" height="50" relative="1" as="geometry">
            <mxPoint x="590" y="290" as="sourcePoint" />
            <mxPoint x="640" y="240" as="targetPoint" />
          </mxGeometry>
        </mxCell>
        <mxCell id="M1MRfgd6Vt9MZMbqWc0O-32" value="" style="endArrow=none;html=1;rounded=0;exitX=0.5;exitY=0;exitDx=0;exitDy=0;entryX=0.5;entryY=1;entryDx=0;entryDy=0;" edge="1" parent="1" source="M1MRfgd6Vt9MZMbqWc0O-1" target="M1MRfgd6Vt9MZMbqWc0O-20">
          <mxGeometry width="50" height="50" relative="1" as="geometry">
            <mxPoint x="650" y="130" as="sourcePoint" />
            <mxPoint x="700" y="80" as="targetPoint" />
          </mxGeometry>
        </mxCell>
        <mxCell id="M1MRfgd6Vt9MZMbqWc0O-33" value="kode_penjualan" style="ellipse;whiteSpace=wrap;html=1;fontStyle=4" vertex="1" parent="1">
          <mxGeometry x="500" y="60" width="120" height="80" as="geometry" />
        </mxCell>
        <mxCell id="M1MRfgd6Vt9MZMbqWc0O-34" value="tgl_penjualan" style="ellipse;whiteSpace=wrap;html=1;" vertex="1" parent="1">
          <mxGeometry x="500" y="-90" width="120" height="80" as="geometry" />
        </mxCell>
        <mxCell id="M1MRfgd6Vt9MZMbqWc0O-35" value="kuantitas" style="ellipse;whiteSpace=wrap;html=1;" vertex="1" parent="1">
          <mxGeometry x="735" y="73" width="100" height="80" as="geometry" />
        </mxCell>
        <mxCell id="M1MRfgd6Vt9MZMbqWc0O-36" value="total_harga" style="ellipse;whiteSpace=wrap;html=1;" vertex="1" parent="1">
          <mxGeometry x="770" y="-90" width="90" height="60" as="geometry" />
        </mxCell>
        <mxCell id="M1MRfgd6Vt9MZMbqWc0O-37" value="" style="endArrow=none;html=1;rounded=0;exitX=1;exitY=0.5;exitDx=0;exitDy=0;entryX=0;entryY=0.5;entryDx=0;entryDy=0;" edge="1" parent="1" source="M1MRfgd6Vt9MZMbqWc0O-33" target="M1MRfgd6Vt9MZMbqWc0O-20">
          <mxGeometry width="50" height="50" relative="1" as="geometry">
            <mxPoint x="620" y="60" as="sourcePoint" />
            <mxPoint x="670" y="10" as="targetPoint" />
          </mxGeometry>
        </mxCell>
        <mxCell id="M1MRfgd6Vt9MZMbqWc0O-38" value="" style="endArrow=none;html=1;rounded=0;exitX=1;exitY=0.5;exitDx=0;exitDy=0;" edge="1" parent="1" source="M1MRfgd6Vt9MZMbqWc0O-34">
          <mxGeometry width="50" height="50" relative="1" as="geometry">
            <mxPoint x="540" y="130" as="sourcePoint" />
            <mxPoint x="620" y="20" as="targetPoint" />
          </mxGeometry>
        </mxCell>
        <mxCell id="M1MRfgd6Vt9MZMbqWc0O-40" value="" style="endArrow=none;html=1;rounded=0;exitX=1;exitY=0.5;exitDx=0;exitDy=0;entryX=0.5;entryY=0;entryDx=0;entryDy=0;" edge="1" parent="1" source="M1MRfgd6Vt9MZMbqWc0O-20" target="M1MRfgd6Vt9MZMbqWc0O-35">
          <mxGeometry width="50" height="50" relative="1" as="geometry">
            <mxPoint x="750" y="30" as="sourcePoint" />
            <mxPoint x="845" y="10" as="targetPoint" />
          </mxGeometry>
        </mxCell>
        <mxCell id="M1MRfgd6Vt9MZMbqWc0O-41" value="" style="endArrow=none;html=1;rounded=0;exitX=0.5;exitY=0;exitDx=0;exitDy=0;entryX=0.5;entryY=1;entryDx=0;entryDy=0;" edge="1" parent="1" source="M1MRfgd6Vt9MZMbqWc0O-20" target="M1MRfgd6Vt9MZMbqWc0O-8">
          <mxGeometry width="50" height="50" relative="1" as="geometry">
            <mxPoint x="750" y="30" as="sourcePoint" />
            <mxPoint x="750" y="-150" as="targetPoint" />
          </mxGeometry>
        </mxCell>
        <mxCell id="M1MRfgd6Vt9MZMbqWc0O-46" value="beli" style="rhombus;whiteSpace=wrap;html=1;" vertex="1" parent="1">
          <mxGeometry x="970" y="-220" width="110" height="100" as="geometry" />
        </mxCell>
        <mxCell id="M1MRfgd6Vt9MZMbqWc0O-47" value="" style="endArrow=none;html=1;rounded=0;entryX=0;entryY=0.5;entryDx=0;entryDy=0;exitX=1;exitY=0.5;exitDx=0;exitDy=0;" edge="1" parent="1" source="M1MRfgd6Vt9MZMbqWc0O-20" target="M1MRfgd6Vt9MZMbqWc0O-36">
          <mxGeometry width="50" height="50" relative="1" as="geometry">
            <mxPoint x="760" y="-240" as="sourcePoint" />
            <mxPoint x="810" y="-290" as="targetPoint" />
          </mxGeometry>
        </mxCell>
        <mxCell id="M1MRfgd6Vt9MZMbqWc0O-48" value="" style="endArrow=none;html=1;rounded=0;entryX=1;entryY=0.5;entryDx=0;entryDy=0;exitX=0.5;exitY=0;exitDx=0;exitDy=0;" edge="1" parent="1" source="M1MRfgd6Vt9MZMbqWc0O-8" target="M1MRfgd6Vt9MZMbqWc0O-15">
          <mxGeometry width="50" height="50" relative="1" as="geometry">
            <mxPoint x="760" y="-240" as="sourcePoint" />
            <mxPoint x="810" y="-290" as="targetPoint" />
          </mxGeometry>
        </mxCell>
        <mxCell id="M1MRfgd6Vt9MZMbqWc0O-49" value="" style="endArrow=none;html=1;rounded=0;entryX=0.994;entryY=0.675;entryDx=0;entryDy=0;entryPerimeter=0;" edge="1" parent="1" target="M1MRfgd6Vt9MZMbqWc0O-16">
          <mxGeometry width="50" height="50" relative="1" as="geometry">
            <mxPoint x="680" y="-240" as="sourcePoint" />
            <mxPoint x="550" y="-290" as="targetPoint" />
          </mxGeometry>
        </mxCell>
        <mxCell id="M1MRfgd6Vt9MZMbqWc0O-50" value="" style="endArrow=none;html=1;rounded=0;entryX=0.689;entryY=0.942;entryDx=0;entryDy=0;exitX=0.5;exitY=0;exitDx=0;exitDy=0;entryPerimeter=0;" edge="1" parent="1" source="M1MRfgd6Vt9MZMbqWc0O-8" target="M1MRfgd6Vt9MZMbqWc0O-17">
          <mxGeometry width="50" height="50" relative="1" as="geometry">
            <mxPoint x="700" y="-220" as="sourcePoint" />
            <mxPoint x="579.2800000000002" y="-416" as="targetPoint" />
          </mxGeometry>
        </mxCell>
        <mxCell id="M1MRfgd6Vt9MZMbqWc0O-51" value="" style="endArrow=none;html=1;rounded=0;" edge="1" parent="1" target="M1MRfgd6Vt9MZMbqWc0O-18">
          <mxGeometry width="50" height="50" relative="1" as="geometry">
            <mxPoint x="680" y="-250" as="sourcePoint" />
            <mxPoint x="632.6799999999998" y="-494.6400000000001" as="targetPoint" />
          </mxGeometry>
        </mxCell>
        <mxCell id="M1MRfgd6Vt9MZMbqWc0O-52" value="" style="endArrow=none;html=1;rounded=0;entryX=0;entryY=1;entryDx=0;entryDy=0;" edge="1" parent="1" target="M1MRfgd6Vt9MZMbqWc0O-19">
          <mxGeometry width="50" height="50" relative="1" as="geometry">
            <mxPoint x="680" y="-240" as="sourcePoint" />
            <mxPoint x="760.1360607616784" y="-470.54424304671375" as="targetPoint" />
          </mxGeometry>
        </mxCell>
        <mxCell id="M1MRfgd6Vt9MZMbqWc0O-54" value="" style="endArrow=none;html=1;rounded=0;entryX=0;entryY=0.5;entryDx=0;entryDy=0;" edge="1" parent="1" target="M1MRfgd6Vt9MZMbqWc0O-46">
          <mxGeometry width="50" height="50" relative="1" as="geometry">
            <mxPoint x="790" y="-170" as="sourcePoint" />
            <mxPoint x="850" y="-180" as="targetPoint" />
          </mxGeometry>
        </mxCell>
        <mxCell id="M1MRfgd6Vt9MZMbqWc0O-55" value="" style="endArrow=none;html=1;rounded=0;entryX=0;entryY=0.5;entryDx=0;entryDy=0;exitX=1;exitY=0.5;exitDx=0;exitDy=0;" edge="1" parent="1" source="M1MRfgd6Vt9MZMbqWc0O-46" target="M1MRfgd6Vt9MZMbqWc0O-9">
          <mxGeometry width="50" height="50" relative="1" as="geometry">
            <mxPoint x="800" y="-160" as="sourcePoint" />
            <mxPoint x="960" y="-160" as="targetPoint" />
          </mxGeometry>
        </mxCell>
        <mxCell id="M1MRfgd6Vt9MZMbqWc0O-56" value="" style="endArrow=none;html=1;rounded=0;entryX=0.5;entryY=1;entryDx=0;entryDy=0;" edge="1" parent="1" target="M1MRfgd6Vt9MZMbqWc0O-11">
          <mxGeometry width="50" height="50" relative="1" as="geometry">
            <mxPoint x="1320" y="-180" as="sourcePoint" />
            <mxPoint x="1280" y="-210" as="targetPoint" />
          </mxGeometry>
        </mxCell>
        <mxCell id="M1MRfgd6Vt9MZMbqWc0O-58" value="" style="endArrow=none;html=1;rounded=0;exitX=0.5;exitY=0;exitDx=0;exitDy=0;" edge="1" parent="1" source="M1MRfgd6Vt9MZMbqWc0O-13">
          <mxGeometry width="50" height="50" relative="1" as="geometry">
            <mxPoint x="1230" y="-90" as="sourcePoint" />
            <mxPoint x="1320" y="-170" as="targetPoint" />
          </mxGeometry>
        </mxCell>
        <mxCell id="M1MRfgd6Vt9MZMbqWc0O-59" value="" style="endArrow=none;html=1;rounded=0;exitX=0;exitY=0;exitDx=0;exitDy=0;entryX=1;entryY=0.5;entryDx=0;entryDy=0;" edge="1" parent="1" source="M1MRfgd6Vt9MZMbqWc0O-14" target="M1MRfgd6Vt9MZMbqWc0O-9">
          <mxGeometry width="50" height="50" relative="1" as="geometry">
            <mxPoint x="1310" y="-10" as="sourcePoint" />
            <mxPoint x="1240" y="-120" as="targetPoint" />
          </mxGeometry>
        </mxCell>
        <mxCell id="M1MRfgd6Vt9MZMbqWc0O-60" value="" style="endArrow=none;html=1;rounded=0;exitX=0;exitY=1;exitDx=0;exitDy=0;entryX=1;entryY=0.5;entryDx=0;entryDy=0;" edge="1" parent="1" source="M1MRfgd6Vt9MZMbqWc0O-10" target="M1MRfgd6Vt9MZMbqWc0O-9">
          <mxGeometry width="50" height="50" relative="1" as="geometry">
            <mxPoint x="1407.5735931288073" y="-128.28427124746213" as="sourcePoint" />
            <mxPoint x="1330" y="-160" as="targetPoint" />
          </mxGeometry>
        </mxCell>
        <mxCell id="M1MRfgd6Vt9MZMbqWc0O-62" value="" style="endArrow=none;html=1;rounded=0;entryX=0.5;entryY=1;entryDx=0;entryDy=0;exitX=0.5;exitY=0;exitDx=0;exitDy=0;" edge="1" parent="1" source="M1MRfgd6Vt9MZMbqWc0O-67" target="M1MRfgd6Vt9MZMbqWc0O-46">
          <mxGeometry width="50" height="50" relative="1" as="geometry">
            <mxPoint x="1030" y="-30" as="sourcePoint" />
            <mxPoint x="1050" y="-120" as="targetPoint" />
          </mxGeometry>
        </mxCell>
        <mxCell id="M1MRfgd6Vt9MZMbqWc0O-63" value="total_harga" style="ellipse;whiteSpace=wrap;html=1;" vertex="1" parent="1">
          <mxGeometry x="880" y="-50" width="100" height="80" as="geometry" />
        </mxCell>
        <mxCell id="M1MRfgd6Vt9MZMbqWc0O-65" value="tgl_pembelian" style="ellipse;whiteSpace=wrap;html=1;" vertex="1" parent="1">
          <mxGeometry x="1100" y="30" width="120" height="80" as="geometry" />
        </mxCell>
        <mxCell id="M1MRfgd6Vt9MZMbqWc0O-67" value="kuantitas" style="ellipse;whiteSpace=wrap;html=1;" vertex="1" parent="1">
          <mxGeometry x="960" y="50" width="120" height="80" as="geometry" />
        </mxCell>
        <mxCell id="M1MRfgd6Vt9MZMbqWc0O-68" value="kode_pembelian" style="ellipse;whiteSpace=wrap;html=1;fontStyle=4" vertex="1" parent="1">
          <mxGeometry x="1160" y="-60" width="120" height="80" as="geometry" />
        </mxCell>
        <mxCell id="M1MRfgd6Vt9MZMbqWc0O-69" value="" style="endArrow=none;html=1;rounded=0;exitX=0;exitY=0;exitDx=0;exitDy=0;entryX=0.5;entryY=1;entryDx=0;entryDy=0;" edge="1" parent="1" source="M1MRfgd6Vt9MZMbqWc0O-68" target="M1MRfgd6Vt9MZMbqWc0O-46">
          <mxGeometry width="50" height="50" relative="1" as="geometry">
            <mxPoint x="1040" y="-20" as="sourcePoint" />
            <mxPoint x="1010" y="-120" as="targetPoint" />
          </mxGeometry>
        </mxCell>
        <mxCell id="M1MRfgd6Vt9MZMbqWc0O-70" value="" style="endArrow=none;html=1;rounded=0;exitX=0.311;exitY=0.1;exitDx=0;exitDy=0;exitPerimeter=0;entryX=0.5;entryY=1;entryDx=0;entryDy=0;" edge="1" parent="1" source="M1MRfgd6Vt9MZMbqWc0O-65" target="M1MRfgd6Vt9MZMbqWc0O-46">
          <mxGeometry width="50" height="50" relative="1" as="geometry">
            <mxPoint x="1030" y="60" as="sourcePoint" />
            <mxPoint x="1050" y="-80" as="targetPoint" />
          </mxGeometry>
        </mxCell>
        <mxCell id="M1MRfgd6Vt9MZMbqWc0O-71" value="" style="endArrow=none;html=1;rounded=0;exitX=1;exitY=0;exitDx=0;exitDy=0;entryX=0.5;entryY=1;entryDx=0;entryDy=0;" edge="1" parent="1" source="M1MRfgd6Vt9MZMbqWc0O-63" target="M1MRfgd6Vt9MZMbqWc0O-46">
          <mxGeometry width="50" height="50" relative="1" as="geometry">
            <mxPoint x="960" y="-70" as="sourcePoint" />
            <mxPoint x="1010" y="-120" as="targetPoint" />
          </mxGeometry>
        </mxCell>
        <mxCell id="M1MRfgd6Vt9MZMbqWc0O-73" value="&lt;font style=&quot;font-size: 28px&quot;&gt;M&lt;/font&gt;" style="text;html=1;align=center;verticalAlign=middle;resizable=0;points=[];autosize=1;strokeColor=none;fillColor=none;" vertex="1" parent="1">
          <mxGeometry x="640" y="130" width="40" height="30" as="geometry" />
        </mxCell>
        <mxCell id="M1MRfgd6Vt9MZMbqWc0O-74" value="&lt;font style=&quot;font-size: 28px&quot;&gt;M&lt;/font&gt;" style="text;html=1;align=center;verticalAlign=middle;resizable=0;points=[];autosize=1;strokeColor=none;fillColor=none;" vertex="1" parent="1">
          <mxGeometry x="680" y="-95" width="40" height="30" as="geometry" />
        </mxCell>
        <mxCell id="M1MRfgd6Vt9MZMbqWc0O-75" value="&lt;font style=&quot;font-size: 28px&quot;&gt;M&lt;/font&gt;" style="text;html=1;align=center;verticalAlign=middle;resizable=0;points=[];autosize=1;strokeColor=none;fillColor=none;" vertex="1" parent="1">
          <mxGeometry x="900" y="-150" width="40" height="30" as="geometry" />
        </mxCell>
        <mxCell id="M1MRfgd6Vt9MZMbqWc0O-78" value="&lt;font style=&quot;font-size: 28px&quot;&gt;M&lt;/font&gt;" style="text;html=1;align=center;verticalAlign=middle;resizable=0;points=[];autosize=1;strokeColor=none;fillColor=none;" vertex="1" parent="1">
          <mxGeometry x="1100" y="-205" width="40" height="30" as="geometry" />
        </mxCell>
        <mxCell id="M1MRfgd6Vt9MZMbqWc0O-80" value="nama_supp_depan" style="ellipse;whiteSpace=wrap;html=1;" vertex="1" parent="1">
          <mxGeometry x="1520" y="-390" width="120" height="80" as="geometry" />
        </mxCell>
        <mxCell id="M1MRfgd6Vt9MZMbqWc0O-81" value="nama_supp_belakang" style="ellipse;whiteSpace=wrap;html=1;" vertex="1" parent="1">
          <mxGeometry x="1580" y="-260" width="120" height="80" as="geometry" />
        </mxCell>
        <mxCell id="M1MRfgd6Vt9MZMbqWc0O-82" value="" style="endArrow=none;html=1;rounded=0;fontSize=28;exitX=0.938;exitY=0.229;exitDx=0;exitDy=0;exitPerimeter=0;entryX=0;entryY=1;entryDx=0;entryDy=0;" edge="1" parent="1" source="M1MRfgd6Vt9MZMbqWc0O-10" target="M1MRfgd6Vt9MZMbqWc0O-80">
          <mxGeometry width="50" height="50" relative="1" as="geometry">
            <mxPoint x="1530" y="-280" as="sourcePoint" />
            <mxPoint x="1580" y="-330" as="targetPoint" />
          </mxGeometry>
        </mxCell>
        <mxCell id="M1MRfgd6Vt9MZMbqWc0O-83" value="" style="endArrow=none;html=1;rounded=0;fontSize=28;entryX=0.029;entryY=0.307;entryDx=0;entryDy=0;entryPerimeter=0;" edge="1" parent="1" target="M1MRfgd6Vt9MZMbqWc0O-81">
          <mxGeometry width="50" height="50" relative="1" as="geometry">
            <mxPoint x="1510" y="-280" as="sourcePoint" />
            <mxPoint x="1547.5735931288073" y="-311.7157287525381" as="targetPoint" />
          </mxGeometry>
        </mxCell>
        <mxCell id="M1MRfgd6Vt9MZMbqWc0O-84" value="nama_kons_depan" style="ellipse;whiteSpace=wrap;html=1;" vertex="1" parent="1">
          <mxGeometry x="1050" y="520" width="120" height="80" as="geometry" />
        </mxCell>
        <mxCell id="M1MRfgd6Vt9MZMbqWc0O-85" value="nama_kons_belakang" style="ellipse;whiteSpace=wrap;html=1;" vertex="1" parent="1">
          <mxGeometry x="900" y="540" width="120" height="80" as="geometry" />
        </mxCell>
        <mxCell id="M1MRfgd6Vt9MZMbqWc0O-88" value="no_hp_konsumen" style="ellipse;whiteSpace=wrap;html=1;" vertex="1" parent="1">
          <mxGeometry x="720" y="465" width="110" height="70" as="geometry" />
        </mxCell>
        <mxCell id="M1MRfgd6Vt9MZMbqWc0O-86" value="" style="endArrow=none;html=1;rounded=0;fontSize=28;entryX=1;entryY=1;entryDx=0;entryDy=0;exitX=0.5;exitY=0;exitDx=0;exitDy=0;" edge="1" parent="1" source="M1MRfgd6Vt9MZMbqWc0O-85" target="M1MRfgd6Vt9MZMbqWc0O-5">
          <mxGeometry width="50" height="50" relative="1" as="geometry">
            <mxPoint x="940" y="530" as="sourcePoint" />
            <mxPoint x="990" y="480" as="targetPoint" />
          </mxGeometry>
        </mxCell>
        <mxCell id="M1MRfgd6Vt9MZMbqWc0O-87" value="" style="endArrow=none;html=1;rounded=0;fontSize=28;exitX=0;exitY=0;exitDx=0;exitDy=0;" edge="1" parent="1" source="M1MRfgd6Vt9MZMbqWc0O-84">
          <mxGeometry width="50" height="50" relative="1" as="geometry">
            <mxPoint x="950" y="540" as="sourcePoint" />
            <mxPoint x="990" y="480" as="targetPoint" />
          </mxGeometry>
        </mxCell>
        <mxCell id="M1MRfgd6Vt9MZMbqWc0O-89" value="no_hp_supplier" style="ellipse;whiteSpace=wrap;html=1;" vertex="1" parent="1">
          <mxGeometry x="1345" y="-385" width="110" height="70" as="geometry" />
        </mxCell>
      </root>
    </mxGraphModel>
  </diagram>
</mxfile>
